<svg width="221" height="68" viewBox="0 0 221 68" fill="none" xmlns="http://www.w3.org/2000/svg">
<g clip-path="url(#clip0)">
<path d="M11.088 26.184C12 26.184 12.744 26.052 13.32 25.788C13.92 25.5 14.376 25.128 14.688 24.672C15.024 24.192 15.252 23.652 15.372 23.052C15.492 22.428 15.552 21.792 15.552 21.144V20.496H20.304V21.144C20.304 24.144 19.512 26.46 17.928 28.092C16.368 29.7 14.088 30.504 11.088 30.504C8.208 30.504 5.928 29.628 4.248 27.876C2.568 26.124 1.728 23.568 1.728 20.208V14.592C1.728 12.984 1.944 11.544 2.376 10.272C2.808 8.976 3.432 7.896 4.248 7.032C5.064 6.144 6.048 5.472 7.2 5.016C8.352 4.536 9.648 4.296 11.088 4.296C12.576 4.296 13.896 4.512 15.048 4.944C16.2 5.376 17.16 6 17.928 6.816C18.72 7.632 19.308 8.616 19.692 9.768C20.1 10.92 20.304 12.216 20.304 13.656V14.304H15.552V13.656C15.552 13.056 15.48 12.456 15.336 11.856C15.192 11.256 14.952 10.716 14.616 10.236C14.28 9.756 13.824 9.372 13.248 9.084C12.672 8.772 11.952 8.616 11.088 8.616C10.296 8.616 9.612 8.772 9.036 9.084C8.46 9.372 7.98 9.78 7.596 10.308C7.212 10.812 6.924 11.412 6.732 12.108C6.564 12.78 6.48 13.488 6.48 14.232V20.568C6.48 21.384 6.564 22.14 6.732 22.836C6.9 23.508 7.164 24.096 7.524 24.6C7.884 25.104 8.352 25.5 8.928 25.788C9.528 26.052 10.248 26.184 11.088 26.184ZM59.7099 27.408H59.0619C58.8699 27.816 58.6299 28.212 58.3419 28.596C58.0779 28.956 57.7179 29.28 57.2619 29.568C56.8299 29.856 56.3019 30.084 55.6779 30.252C55.0779 30.42 54.3459 30.504 53.4819 30.504C52.3779 30.504 51.3459 30.312 50.3859 29.928C49.4499 29.52 48.6219 28.932 47.9019 28.164C47.2059 27.372 46.6539 26.412 46.2459 25.284C45.8619 24.156 45.6699 22.86 45.6699 21.396V20.748C45.6699 19.308 45.8739 18.024 46.2819 16.896C46.7139 15.768 47.2899 14.82 48.0099 14.052C48.7539 13.26 49.6059 12.66 50.5659 12.252C51.5499 11.844 52.5819 11.64 53.6619 11.64C55.1019 11.64 56.2419 11.916 57.0819 12.468C57.9219 12.996 58.5819 13.752 59.0619 14.736H59.7099V4.8H64.2459V30H59.7099V27.408ZM54.9579 26.184C56.3739 26.184 57.5139 25.74 58.3779 24.852C59.2659 23.94 59.7099 22.752 59.7099 21.288V20.856C59.7099 19.392 59.2659 18.216 58.3779 17.328C57.5139 16.416 56.3739 15.96 54.9579 15.96C53.5419 15.96 52.3899 16.404 51.5019 17.292C50.6379 18.156 50.2059 19.344 50.2059 20.856V21.288C50.2059 22.8 50.6379 24 51.5019 24.888C52.3899 25.752 53.5419 26.184 54.9579 26.184ZM69.2609 25.68H75.3089V16.464H69.6929V12.144H79.8449V25.68H85.0289V30H69.2609V25.68ZM80.9609 6.852C80.9609 7.332 80.8649 7.788 80.6729 8.22C80.5049 8.628 80.2649 8.988 79.9529 9.3C79.6409 9.588 79.2689 9.828 78.8369 10.02C78.4289 10.188 77.9969 10.272 77.5409 10.272C77.0609 10.272 76.6169 10.188 76.2089 10.02C75.8009 9.828 75.4409 9.588 75.1289 9.3C74.8169 8.988 74.5649 8.628 74.3729 8.22C74.2049 7.788 74.1209 7.332 74.1209 6.852C74.1209 6.372 74.2049 5.928 74.3729 5.52C74.5649 5.088 74.8169 4.728 75.1289 4.44C75.4409 4.128 75.8009 3.888 76.2089 3.72C76.6169 3.528 77.0609 3.432 77.5409 3.432C77.9969 3.432 78.4289 3.528 78.8369 3.72C79.2689 3.888 79.6409 4.128 79.9529 4.44C80.2649 4.728 80.5049 5.088 80.6729 5.52C80.8649 5.928 80.9609 6.372 80.9609 6.852ZM95.5159 30H90.9799V12.144H95.5159V14.808H96.1639C96.5719 13.8 97.2319 13.02 98.1439 12.468C99.0559 11.916 100.124 11.64 101.348 11.64C102.212 11.64 103.016 11.784 103.76 12.072C104.528 12.336 105.2 12.756 105.776 13.332C106.352 13.908 106.796 14.64 107.108 15.528C107.444 16.416 107.612 17.472 107.612 18.696V30H103.076V19.848C103.076 18.576 102.764 17.58 102.14 16.86C101.54 16.116 100.664 15.744 99.5119 15.744C98.1679 15.744 97.1599 16.2 96.4879 17.112C95.8399 18 95.5159 19.2 95.5159 20.712V30ZM125.767 27.408H125.119C124.927 27.816 124.687 28.212 124.399 28.596C124.135 28.956 123.775 29.28 123.319 29.568C122.887 29.856 122.359 30.084 121.735 30.252C121.135 30.42 120.403 30.504 119.539 30.504C118.435 30.504 117.403 30.312 116.443 29.928C115.507 29.52 114.679 28.932 113.959 28.164C113.263 27.372 112.711 26.412 112.303 25.284C111.919 24.156 111.727 22.86 111.727 21.396V20.748C111.727 19.308 111.931 18.024 112.339 16.896C112.771 15.768 113.347 14.82 114.067 14.052C114.811 13.26 115.663 12.66 116.623 12.252C117.607 11.844 118.639 11.64 119.719 11.64C121.159 11.64 122.299 11.916 123.139 12.468C123.979 12.996 124.639 13.752 125.119 14.736H125.767V12.144H130.303V34.392C130.303 35.208 130.039 35.88 129.511 36.408C129.007 36.936 128.347 37.2 127.531 37.2H115.507V32.88H124.795C125.443 32.88 125.767 32.52 125.767 31.8V27.408ZM121.015 26.184C122.431 26.184 123.571 25.74 124.435 24.852C125.323 23.94 125.767 22.752 125.767 21.288V20.856C125.767 19.392 125.323 18.216 124.435 17.328C123.571 16.416 122.431 15.96 121.015 15.96C119.599 15.96 118.447 16.404 117.559 17.292C116.695 18.156 116.263 19.344 116.263 20.856V21.288C116.263 22.8 116.695 24 117.559 24.888C118.447 25.752 119.599 26.184 121.015 26.184ZM135.426 4.8H151.554V9.336H140.178V15.096H151.338V19.632H140.178V30H135.426V4.8ZM183.688 30H179.152V12.144H183.688V14.808H184.336C184.744 13.8 185.404 13.02 186.316 12.468C187.228 11.916 188.296 11.64 189.52 11.64C190.384 11.64 191.188 11.784 191.932 12.072C192.7 12.336 193.372 12.756 193.948 13.332C194.524 13.908 194.968 14.64 195.28 15.528C195.616 16.416 195.784 17.472 195.784 18.696V30H191.248V19.848C191.248 18.576 190.936 17.58 190.312 16.86C189.712 16.116 188.836 15.744 187.684 15.744C186.34 15.744 185.332 16.2 184.66 17.112C184.012 18 183.688 19.2 183.688 20.712V30ZM200.691 12.144H205.983V4.8H210.519V12.144H216.963V16.464H210.519V24.6C210.519 25.32 210.843 25.68 211.491 25.68H216.315V30H208.755C207.939 30 207.267 29.736 206.739 29.208C206.235 28.68 205.983 28.008 205.983 27.192V16.464H200.691V12.144Z" fill="#bad424"/>
<path d="M30.071 14L25.8284 18.2426C24.2663 19.8047 24.2663 22.3374 25.8284 23.8995L30.071 28.1421" stroke="#bad424" stroke-width="4.6" stroke-linecap="round"/>
<mask id="mask0" style="mask-type:alpha" maskUnits="userSpaceOnUse" x="19" y="10" width="22" height="22">
<path d="M30.071 14L25.8284 18.2426C24.2663 19.8047 24.2663 22.3374 25.8284 23.8995L30.071 28.1421" stroke="#EB5757" stroke-width="4.6" stroke-linecap="round"/>
</mask>
<g mask="url(#mask0)">
<g style="mix-blend-mode:darken" opacity="0.5">
<path d="M24.9678 22.4322L30.2001 17.2L29 30L24.9678 25.9678C23.9915 24.9915 23.9915 23.4086 24.9678 22.4322Z" fill="url(#paint0_linear)"/>
</g>
</g>
<path d="M161.071 14L156.828 18.2426C155.266 19.8047 155.266 22.3374 156.828 23.8995L161.071 28.1421" stroke="#bad424" stroke-width="4.6" stroke-linecap="round"/>
<mask id="mask1" style="mask-type:alpha" maskUnits="userSpaceOnUse" x="150" y="10" width="22" height="22">
<path d="M161.071 14L156.828 18.2426C155.266 19.8047 155.266 22.3374 156.828 23.8995L161.071 28.1421" stroke="#EB5757" stroke-width="4.6" stroke-linecap="round"/>
</mask>
<g mask="url(#mask1)">
<g style="mix-blend-mode:darken" opacity="0.5">
<path d="M155.968 22.4322L161.2 17.2L160 30L155.968 25.9678C154.992 24.9915 154.992 23.4086 155.968 22.4322Z" fill="url(#paint1_linear)"/>
</g>
</g>
<path d="M36.071 28.1421L40.3137 23.8994C41.8758 22.3374 41.8758 19.8047 40.3137 18.2426L36.071 14" stroke="#bad424" stroke-width="4.6" stroke-linecap="round"/>
<mask id="mask2" style="mask-type:alpha" maskUnits="userSpaceOnUse" x="25" y="10" width="22" height="22">
<path d="M36.071 28.1421L40.3137 23.8994C41.8758 22.3374 41.8758 19.8047 40.3137 18.2426L36.071 14" stroke="#EB5757" stroke-width="4.6" stroke-linecap="round"/>
</mask>
<g mask="url(#mask2)">
<g style="mix-blend-mode:darken" opacity="0.5">
<path d="M41.1743 19.7098L35.942 24.9421L37.1421 12.1421L41.1743 16.1743C42.1506 17.1506 42.1506 18.7335 41.1743 19.7098Z" fill="url(#paint2_linear)"/>
</g>
</g>
<path d="M167.071 28.1421L171.314 23.8994C172.876 22.3374 172.876 19.8047 171.314 18.2426L167.071 14" stroke="#bad424" stroke-width="4.6" stroke-linecap="round"/>
<mask id="mask3" style="mask-type:alpha" maskUnits="userSpaceOnUse" x="156" y="10" width="22" height="22">
<path d="M167.071 28.1421L171.314 23.8994C172.876 22.3374 172.876 19.8047 171.314 18.2426L167.071 14" stroke="#EB5757" stroke-width="4.6" stroke-linecap="round"/>
</mask>
<g mask="url(#mask3)">
<g style="mix-blend-mode:darken" opacity="0.5">
<path d="M172.174 19.7098L166.942 24.9421L168.142 12.1421L172.174 16.1743C173.151 17.1506 173.151 18.7335 172.174 19.7098Z" fill="url(#paint3_linear)"/>
</g>
</g>
<path d="M11.13 47.274C12.142 47.274 12.8973 47.582 13.396 48.198C13.8947 48.814 14.144 49.7013 14.144 50.86C14.144 52.0627 13.8507 53.324 13.264 54.644C12.692 55.964 11.8633 57.0713 10.778 57.966C9.69267 58.8607 8.446 59.308 7.038 59.308C6.686 59.308 6.356 59.264 6.048 59.176C5.74 59.088 5.48333 58.9707 5.278 58.824C4.98467 58.7507 4.69867 58.714 4.42 58.714C3.65733 58.714 2.726 58.9267 1.626 59.352L1.296 59.198C1.472 58.846 1.63333 58.4133 1.78 57.9L5.828 44.326C5.90133 44.062 5.938 43.8567 5.938 43.71C5.938 43.4167 5.82067 43.204 5.586 43.072C5.366 42.94 4.98467 42.874 4.442 42.874L4.596 42.412C5.75467 42.3973 6.80333 42.3167 7.742 42.17C8.68067 42.0233 9.59733 41.8033 10.492 41.51L8.138 49.496C8.56333 48.7333 9.018 48.176 9.502 47.824C9.986 47.4573 10.5287 47.274 11.13 47.274ZM6.048 58.582C6.67867 58.582 7.302 58.1273 7.918 57.218C8.54867 56.294 9.062 55.1573 9.458 53.808C9.854 52.4587 10.052 51.19 10.052 50.002C10.052 49.518 10.008 49.188 9.92 49.012C9.84667 48.836 9.71467 48.748 9.524 48.748C9.24533 48.748 8.952 48.9313 8.644 49.298C8.336 49.65 8.03533 50.1487 7.742 50.794L5.476 58.494C5.71067 58.5527 5.90133 58.582 6.048 58.582ZM23.4323 47.274C24.547 47.274 25.1043 47.9853 25.1043 49.408C25.1043 50.684 24.679 52.2313 23.8283 54.05C22.9923 55.854 21.973 57.4747 20.7703 58.912C19.8463 60.012 18.8783 60.8993 17.8663 61.574C16.869 62.2633 15.8716 62.7253 14.8743 62.96C14.3756 63.0773 13.943 63.136 13.5763 63.136C12.9896 63.136 12.5423 63.004 12.2343 62.74C11.9116 62.4907 11.7503 62.1387 11.7503 61.684C11.7503 61.244 11.9116 60.8627 12.2343 60.54C12.557 60.232 12.9823 60.078 13.5103 60.078C14.5663 60.078 15.4683 60.7233 16.2163 62.014C17.1696 61.5887 18.0203 61.0387 18.7683 60.364L16.9863 49.474C16.913 49.0927 16.847 48.8433 16.7883 48.726C16.7443 48.594 16.6563 48.528 16.5243 48.528C16.3776 48.528 16.2456 48.616 16.1283 48.792C16.0256 48.968 15.8643 49.342 15.6443 49.914L15.1823 51.146H14.7643L15.3143 49.54C15.6076 48.704 15.9816 48.1173 16.4363 47.78C16.9056 47.4427 17.4776 47.274 18.1523 47.274C18.8856 47.274 19.465 47.472 19.8903 47.868C20.3156 48.2493 20.6016 48.924 20.7483 49.892L21.6943 56.932C22.6623 55.524 23.4323 54.0133 24.0043 52.4C23.315 52.0187 22.7576 51.5347 22.3323 50.948C21.9216 50.3613 21.7163 49.738 21.7163 49.078C21.7163 48.5207 21.863 48.0807 22.1563 47.758C22.4643 47.4353 22.8896 47.274 23.4323 47.274Z" fill="white"/>
<g clip-path="url(#clip1)">
<path d="M32.9215 59.0288H37.4708L41.3523 43.9959C43.8147 43.9959 46.0684 43.8685 47.404 42.2123L47.0701 42C46.5693 42.6795 45.2337 43.189 44.6077 43.3164C43.2721 43.5712 40.9349 43.5288 38.7229 43.3589C36.8447 43.2315 35.384 43.1466 34.3406 43.1466C32.5042 43.1466 30.9599 43.5288 30 44.9726L30.5008 45.1849C31.1269 43.826 32.7129 43.5288 34.424 43.5288C35.0918 43.5288 35.9265 43.5712 36.9699 43.6562L32.9215 59.0288ZM54.4574 49.0918L50.7012 63.0206H54.7078L55.6678 58.8589C56.1269 59.1137 57.212 59.326 57.7546 59.326C60.4674 59.326 62.6377 57.1178 63.6811 54.5274C64.2237 53.1685 64.4741 51.8521 64.4741 50.6205C64.4741 48.4973 63.6811 46.9685 61.4274 46.9685C60.0083 46.9685 58.9649 48.0726 58.2137 49.5164C58.4224 48.2849 58.0885 46.9685 56.0434 46.9685C54.5409 46.9685 53.3723 47.8178 52.8715 49.2616L52.2454 51.0452H52.6628L53.1636 49.6863C53.5392 48.7096 53.9149 48.2425 54.2487 48.2425C54.5826 48.2425 54.5409 48.7945 54.4574 49.0918ZM117.354 50.111C117.73 48.2425 117.354 46.9685 115.309 46.9685C113.806 46.9685 112.638 47.8178 112.137 49.2616L111.511 51.0452H111.928L112.429 49.6863C112.805 48.7096 113.18 48.2425 113.598 48.2425C114.015 48.2425 113.973 48.7521 113.848 49.1767L111.135 58.9863H115.058L115.935 55.589C116.519 53.3384 117.354 51.6397 117.98 50.4507C118.648 49.2192 119.232 48.5822 119.775 48.5822C120.15 48.5822 120.025 48.8795 119.816 49.5589L117.145 58.9863H121.11L122.028 55.8014C122.78 53.2534 123.531 51.3849 124.24 50.2808C124.95 49.1342 125.534 48.5822 125.993 48.5822C126.202 48.5822 126.202 49.0493 125.993 49.5589L124.073 55.4192C123.865 56.0986 123.74 56.6932 123.74 57.2027C123.74 58.4342 124.574 59.326 126.119 59.326C127.705 59.326 128.79 58.5192 129.29 56.9904L129.833 55.3342H129.416L128.957 56.6082C128.623 57.5425 128.205 58.0096 127.788 58.0096C127.371 58.0096 127.329 57.5849 127.496 57.0753L129.708 50.3658C129.917 49.7288 130 49.1767 130 48.7521C130 47.563 129.332 46.9685 127.997 46.9685C127.078 46.9685 126.244 47.2233 125.492 47.7753C124.783 48.3274 124.115 49.3466 123.447 50.7904L123.573 50.3658C123.74 49.7288 123.823 49.2192 123.823 48.7521C123.823 47.563 123.155 46.9685 121.861 46.9685C119.441 46.9685 118.23 48.5822 117.062 51.1301L117.354 50.111ZM111.093 46.5014C109.841 47.011 108.297 47.6055 107.045 47.6055L106.836 48.3699C106.753 47.5205 106.085 46.9685 105.25 46.9685C102.871 46.9685 100.534 49.6014 99.2404 52.1069C98.4474 53.6356 98.1553 55.0795 98.1553 56.4808C98.1553 58.3493 99.0735 59.326 100.868 59.326C102.579 59.326 103.664 58.4342 104.249 56.7356V57.1603C104.249 58.4767 104.958 59.326 106.544 59.326C108.13 59.326 109.215 58.5192 109.716 56.9904L110.259 55.3342H109.841L109.382 56.6082C109.048 57.5425 108.631 58.0096 108.214 58.0096C107.755 58.0096 107.796 57.6274 107.963 57.0753L111.093 46.5014ZM59.7579 54.0603C59.0901 56.0986 57.8381 58.5616 56.3356 58.5616C56.1686 58.5616 55.9599 58.5192 55.7513 58.4767L57.7546 51.2575C58.2554 50.026 59.0484 48.4548 59.8414 48.4548C60.3005 48.4548 60.3422 49.4315 60.3422 50.2808C60.3493 51.5645 60.1519 52.8408 59.7579 54.0603ZM72.4875 53.211C71.9032 55.1644 70.3589 58.8589 69.3155 58.8589C68.9399 58.8589 68.8564 58.4342 68.8564 57.5849C68.8564 56.2685 69.1068 54.8247 69.5659 53.211C70.1502 51.1301 71.7362 47.3932 72.8214 47.3932C73.0718 47.3932 73.197 48.0301 73.197 48.7096C73.197 50.111 72.9466 51.6397 72.4875 53.211ZM76.8698 50.7904C76.8698 48.4123 75.576 46.9685 72.9048 46.9685C68.3973 46.9685 65.1836 50.9178 65.1836 55.4616C65.1836 58.0096 66.6027 59.326 69.1486 59.326C73.6561 59.326 76.8698 55.3342 76.8698 50.7904ZM106.586 49.0493L105 54.4425C104.541 55.9712 103.831 57.7548 102.997 57.7548C102.496 57.7548 102.496 57.2877 102.496 56.5658C102.496 55.2918 102.705 53.9753 103.122 52.6589C103.706 50.8753 105.083 48.0726 106.169 48.0726C106.503 48.0726 106.628 48.5397 106.586 49.0493ZM94.5242 49.474C95.2755 47.8178 96.4023 46.7986 97.6962 46.7986C98.99 46.7986 99.9082 47.7329 99.9082 49.0493C99.9082 50.6205 98.7813 51.8521 97.3205 51.8521C96.1519 51.8521 95.6928 51.1301 95.6928 50.1959C95.6928 48.7096 96.9866 47.5205 98.197 47.4356C97.9858 47.2961 97.7393 47.2223 97.4875 47.2233C96.7362 47.2233 95.9432 47.9027 95.4424 48.6247C94.6912 49.7288 94.1068 51.2575 93.6477 52.574L92.02 58.9014H88.0968L90.3506 50.8329C90.8932 48.837 90.5175 47.4356 89.4741 47.4356C88.8063 47.4356 87.9716 48.1151 87.2204 48.7945L87.0117 48.4548C88.0968 47.1808 90.3923 45.8219 92.02 45.8219C93.6895 45.8219 94.9416 47.3507 94.5242 49.474ZM83.5476 51.1301C83.7156 50.3203 83.7995 49.4948 83.798 48.6671C83.798 47.7753 83.6311 47.3932 83.2972 47.3932C82.6294 47.3932 82.0868 48.8795 81.9199 49.9411C81.7828 50.7547 81.713 51.5786 81.7112 52.4041C81.7112 53.2959 81.7947 53.6781 82.1285 53.6781C82.9633 53.6781 83.3806 51.9795 83.5476 51.1301ZM87.5125 49.5589C87.5125 51.7671 85.4257 53.2534 83.0885 53.9753C82.0033 54.3151 81.0434 54.8247 81.0434 55.2493C81.0434 55.674 81.4608 55.8438 83.8397 56.6082C85.2588 57.0753 86.3439 57.9671 86.3439 59.3685C86.3439 61.9164 82.6711 63.2329 79.4157 63.2329C77.5793 63.2329 75.0334 62.7233 75.0334 61.4918C75.0334 60.3027 77.5793 59.8781 78.7479 59.7507C79.4157 59.6658 80.793 59.4534 81.419 59.1986L81.6694 59.5384C79.5826 59.7932 78.2053 61.1096 78.2053 61.8315C78.2053 62.426 79.0401 62.8932 79.7913 62.8932C81.419 62.8932 83.3806 61.874 83.3806 60.7274C83.3806 60.1753 82.2955 59.8356 80.8765 59.3685C79.4574 58.9014 77.5793 58.3069 77.5793 57.2452C77.5793 55.8438 79.6661 54.9945 81.9199 54.1027H81.6694C79.6244 54.1027 77.9967 53.3808 77.9967 51.5123C77.9967 48.8795 80.8765 46.9685 83.8815 46.9685C86.0935 46.9685 87.5125 47.7753 87.5125 49.5589ZM51.4524 49.1342C51.4524 47.6904 50.8681 46.9685 49.7412 46.9685C48.7396 46.9685 48.03 47.4781 48.03 48.7945C48.03 50.1959 48.99 51.4274 50.3255 52.2342C49.7412 53.8904 48.99 55.4192 47.9883 56.863L47.0284 49.6438C46.778 47.8603 46.1102 46.9685 44.399 46.9685C42.8965 46.9685 42.0618 47.7329 41.5609 49.2616L41.0184 50.9178H41.4357L41.8531 49.6863C42.1035 48.9219 42.4791 48.2425 42.7713 48.2425C43.0217 48.2425 43.1052 48.5397 43.2304 49.2192L45.025 60.3877C44.2738 61.0671 43.4391 61.6616 42.4791 62.0863C41.7279 60.7699 40.8097 60.0904 39.7245 60.0904C39.2237 60.0904 38.7646 60.2603 38.4307 60.5575C38.1386 60.8973 37.9716 61.2795 37.9716 61.7466C37.9716 62.2137 38.1386 62.5534 38.4307 62.8507C38.7646 63.1055 39.2237 63.2329 39.808 63.2329C40.2446 63.2314 40.6792 63.1743 41.1018 63.063C42.1035 62.8082 43.1052 62.3411 44.1486 61.6192C45.1503 60.9397 46.1102 60.0479 47.0701 58.9014C48.2805 57.4151 49.2821 55.7589 50.1586 53.8904C50.9933 52.0644 51.4524 50.4507 51.4524 49.1342Z" fill="white"/>
</g>
</g>
<defs>
<linearGradient id="paint0_linear" x1="25" y1="22" x2="28" y2="25" gradientUnits="userSpaceOnUse">
<stop/>
<stop offset="1" stop-opacity="0"/>
</linearGradient>
<linearGradient id="paint1_linear" x1="156" y1="22" x2="159" y2="25" gradientUnits="userSpaceOnUse">
<stop/>
<stop offset="1" stop-opacity="0"/>
</linearGradient>
<linearGradient id="paint2_linear" x1="41.1421" y1="20.1421" x2="38.1421" y2="17.1421" gradientUnits="userSpaceOnUse">
<stop/>
<stop offset="1" stop-opacity="0"/>
</linearGradient>
<linearGradient id="paint3_linear" x1="172.142" y1="20.1421" x2="169.142" y2="17.1421" gradientUnits="userSpaceOnUse">
<stop/>
<stop offset="1" stop-opacity="0"/>
</linearGradient>
<clipPath id="clip0">
<rect width="221" height="68" fill="white"/>
</clipPath>
<clipPath id="clip1">
<rect width="100" height="21.2329" fill="white" transform="translate(30 42)"/>
</clipPath>
</defs>
</svg>
